<svg width="616" height="387" viewBox="0 0 616 387" fill="none" xmlns="http://www.w3.org/2000/svg">
<mask id="mask0_383_6776" style="mask-type:luminance" maskUnits="userSpaceOnUse" x="0" y="0" width="616" height="387">
<path d="M587.74 386.187H50.4718C35.2579 386.187 22.9208 373.85 22.9208 358.636C22.9208 343.422 35.2579 331.085 50.4718 331.085H124.717C139.931 331.085 152.268 318.748 152.268 303.534C152.268 288.32 139.931 275.983 124.717 275.983C109.491 275.983 97.1659 263.646 97.1659 248.432C97.1659 247.683 97.1971 246.943 97.2594 246.21C97.1191 241.836 97.0139 239.369 94.9908 234.013C93.3303 229.628 88.6059 222.331 76.1284 220.869H28.2766C13.0627 220.869 0.725586 208.544 0.725586 193.318C0.725586 178.104 13.0627 165.767 28.2766 165.767H153.344C165.821 164.317 170.546 157.02 172.218 152.635C174.346 146.987 174.346 144.543 174.498 139.713C174.475 139.222 174.463 138.723 174.463 138.216C174.463 123.002 186.8 110.665 202.014 110.665H219.251C234.477 110.665 246.814 98.3279 246.814 83.114C246.814 67.9001 234.477 55.563 219.251 55.563H160.688C145.462 55.563 133.137 43.2258 133.137 28.0119C133.137 12.7863 145.462 0.460907 160.688 0.460907H374.22C389.434 0.460907 401.771 12.7863 401.771 28.0119C401.763 28.7292 401.732 29.4425 401.677 30.1519C401.818 34.5021 401.911 36.9695 403.946 42.3253C405.642 46.8275 410.588 54.3936 423.802 55.563H532.638C547.852 55.563 560.189 67.9001 560.189 83.114C560.189 98.3279 547.852 110.665 532.638 110.665H464.17C451.856 112.174 447.167 119.412 445.518 123.774C442.945 130.568 443.483 132.708 443.097 139.982L443.039 139.923C442.15 154.342 430.187 165.767 415.546 165.767H352.025C336.799 165.767 324.462 178.104 324.462 193.318C324.462 208.544 336.799 220.869 352.025 220.869H434.678C449.892 220.869 462.229 233.206 462.229 248.432C462.229 263.646 449.892 275.983 434.678 275.983H420.902C405.688 275.983 393.351 288.32 393.351 303.534C393.351 318.748 405.688 331.085 420.902 331.085H587.74C602.966 331.085 615.291 343.422 615.291 358.636C615.291 373.85 602.966 386.187 587.74 386.187Z" fill="white"/>
</mask>
<g mask="url(#mask0_383_6776)">
<path d="M692.517 -8.14587H-130.974V386.223H692.517V-8.14587Z" fill="url(#paint0_linear_383_6776)"/>
</g>
<defs>
<linearGradient id="paint0_linear_383_6776" x1="-130.971" y1="386.132" x2="692.534" y2="386.132" gradientUnits="userSpaceOnUse">
<stop offset="0.219" stop-color="#2A7145"/>
<stop offset="0.826" stop-color="#226E40"/>
</linearGradient>
</defs>
</svg>
