<svg width="526" height="111" viewBox="0 0 526 111" fill="none" xmlns="http://www.w3.org/2000/svg">
<path d="M506.565 73.6548H256.015C247.335 74.6597 243.978 79.4524 242.832 82.3899C241.44 85.9458 241.358 87.5691 241.276 90.4293C241.276 90.8931 241.276 91.3826 241.276 91.898C241.276 101.947 232.679 110.141 222.035 110.141H72.5229C61.8786 110.141 53.1994 101.947 53.1994 91.898C53.1994 81.8488 61.8786 73.6548 72.5229 73.6548H118.375C129.02 73.6548 137.617 65.5381 137.617 55.4888C137.617 45.4396 129.02 37.2456 118.375 37.2456H19.4651C8.82081 37.2456 0.141602 29.1289 0.141602 19.0796C0.141602 8.95309 8.82081 0.836403 19.4651 0.836403H395.619C406.345 0.836403 414.942 8.95309 414.942 19.0796C414.942 19.5434 414.915 20.033 414.86 20.5484C414.942 23.4085 415.024 25.0319 416.498 28.5878C417.644 31.4479 420.919 36.2406 429.517 37.2456H506.565C517.21 37.2456 525.889 45.4396 525.889 55.4888C525.889 65.5381 517.21 73.6548 506.565 73.6548Z" fill="url(#paint0_radial_383_6890)"/>
<defs>
<radialGradient id="paint0_radial_383_6890" cx="0" cy="0" r="1" gradientUnits="userSpaceOnUse" gradientTransform="translate(646.408 311.526) scale(581.422 548.917)">
<stop stop-color="#1C8A44"/>
<stop offset="1" stop-color="#04642E"/>
</radialGradient>
</defs>
</svg>
